# xmcd
#
# Track frame offsets:
#	150
#	13766
#	29056
#	40288
#	56140
#	72600
#	87633
#	103066
#	118444
#	135660
#	153531
#	166785
#
# Disc length: 2411 seconds
#
# Revision: 1
# Processed by: cddbd v1.5.2PL0 Copyright (c) Steve Scherf et al.
# Submitted via: audiograbber 1.83.01
#
DISCID=b509690c
DTITLE=The Civil Wars - Barton Hollow
DYEAR=2011
DGENRE=Country
TTITLE0=20 Years
TTITLE1=I've Got This Friend
TTITLE2=C'est La Mort
TTITLE3=To Whom It May Concern
TTITLE4=Poison and Wine
TTITLE5=My Father's Father
TTITLE6=Barton Hollow
TTITLE7=The Violet Hour
TTITLE8=Girl With The Red Balloon
TTITLE9=Falling
TTITLE10=Forget Me Not
TTITLE11=Birds Of A Feather
EXTD=
EXTT0=
EXTT1=
EXTT2=
EXTT3=
EXTT4=
EXTT5=
EXTT6=
EXTT7=
EXTT8=
EXTT9=
EXTT10=
EXTT11=
PLAYORDER=
